<svg width="232" height="238" xmlns="http://www.w3.org/2000/svg" xmlns:xlink="http://www.w3.org/1999/xlink" overflow="hidden"><defs><clipPath id="clip0"><rect x="870" y="-275" width="232" height="238"/></clipPath><clipPath id="clip1"><rect x="950" y="-263" width="72" height="72"/></clipPath><clipPath id="clip2"><rect x="950" y="-263" width="72" height="72"/></clipPath><clipPath id="clip3"><rect x="950" y="-263" width="72" height="72"/></clipPath><clipPath id="clip4"><rect x="1060" y="-101" width="19" height="20"/></clipPath><clipPath id="clip5"><rect x="1060" y="-101" width="19" height="20"/></clipPath><clipPath id="clip6"><rect x="1060" y="-101" width="19" height="20"/></clipPath></defs><g clip-path="url(#clip0)" transform="translate(-870 275)"><rect x="871" y="-275" width="231" height="237" fill="#FFFFFF" fill-opacity="0.8"/><g clip-path="url(#clip1)"><g clip-path="url(#clip2)"><g clip-path="url(#clip3)"><path d="M986-230C982.25-230 979.25-233 979.25-236.75 979.25-240.5 982.25-243.5 986-243.5 989.75-243.5 992.75-240.5 992.75-236.75 992.75-233 989.75-230 986-230ZM986-252.5C980.825-252.5 975.95-249.95 973.025-245.6 970.1-241.325 969.5-235.85 971.375-230.975L978.5-215.225 984.65-202.325C984.875-201.8 985.4-201.5 986-201.5 986.6-201.5 987.125-201.8 987.35-202.325L993.5-215.225 1000.62-230.975C1002.5-235.85 1001.9-241.325 998.975-245.6 996.05-249.95 991.175-252.5 986-252.5Z" fill="#C00000"/></g></g></g><text font-family="Heebo,Heebo_MSFontService,sans-serif" font-weight="300" font-size="19" direction="rtl" writing-mode="rl-tb" transform="translate(917.547 -86)" x="137">אני רוצה לדעת עוד</text><text font-family="Rubik,Rubik_MSFontService,sans-serif" font-weight="700" font-size="27" direction="rtl" writing-mode="rl-tb" transform="translate(915.13 -153)" x="141.833">אגמון החולה</text><g clip-path="url(#clip4)"><g clip-path="url(#clip5)"><g clip-path="url(#clip6)"><path d="M17.4167 8.3125 10.6875 8.3125 10.6875 1.58333 8.3125 1.58333 8.3125 8.3125 1.58333 8.3125 1.58333 10.6875 8.3125 10.6875 8.3125 17.4167 10.6875 17.4167 10.6875 10.6875 17.4167 10.6875Z" transform="matrix(1 0 0 1.05263 1060 -101)"/></g></g></g></g></svg>