<svg width="537" height="403" xmlns="http://www.w3.org/2000/svg" xmlns:xlink="http://www.w3.org/1999/xlink" overflow="hidden"><defs><clipPath id="clip0"><rect x="496" y="-222" width="537" height="403"/></clipPath><clipPath id="clip1"><rect x="996" y="24" width="37" height="37"/></clipPath><clipPath id="clip2"><rect x="996" y="24" width="37" height="37"/></clipPath><clipPath id="clip3"><rect x="996" y="24" width="37" height="37"/></clipPath></defs><g clip-path="url(#clip0)" transform="translate(-496 222)"><rect x="497" y="-214" width="533" height="394" fill="#E3D8C4"/><text font-family="Rubik,Rubik_MSFontService,sans-serif" font-weight="400" font-size="19" direction="rtl" writing-mode="rl-tb" transform="translate(817.616 -107)" x="202.667">המנה הישראלית המושלמת</text><text font-family="Rubik,Rubik_MSFontService,sans-serif" font-weight="400" font-size="19" direction="rtl" writing-mode="rl-tb" transform="translate(808.45 -107)" x="9.16667">, </text><text font-family="Rubik,Rubik_MSFontService,sans-serif" font-weight="400" font-size="19" direction="rtl" writing-mode="rl-tb" transform="translate(552.95 -107)" x="255.5">קלה להכנה וטעימה לכל המשפחה</text><text font-family="Rubik,Rubik_MSFontService,sans-serif" font-weight="400" font-size="19" direction="rtl" writing-mode="rl-tb" transform="translate(548.283 -107)" x="4.66667">.</text><text font-family="Arial,Arial_MSFontService,sans-serif" font-weight="400" font-size="19" transform="translate(1013.79 -85)">•</text><text font-family="Rubik,Rubik_MSFontService,sans-serif" font-weight="400" font-size="19" direction="rtl" writing-mode="rl-tb" transform="translate(850.95 -85)" x="139.333">רוטב עגבניות ביתי </text><text font-family="Rubik,Rubik_MSFontService,sans-serif" font-weight="400" font-size="19" direction="rtl" writing-mode="rl-tb" transform="translate(837.45 -85)" x="13.5">/ </text><text font-family="Rubik,Rubik_MSFontService,sans-serif" font-weight="400" font-size="19" direction="rtl" writing-mode="rl-tb" transform="translate(809.116 -85)" x="28.3333">קנוי</text><text font-family="Arial,Arial_MSFontService,sans-serif" font-weight="400" font-size="19" transform="translate(1013.79 -63)">•</text><text font-family="Rubik,Rubik_MSFontService,sans-serif" font-weight="400" font-size="19" direction="rtl" writing-mode="rl-tb" transform="translate(846.616 -63)" x="143.667">תבלינים לבחירתכם</text><text font-family="Arial,Arial_MSFontService,sans-serif" font-weight="400" font-size="19" transform="translate(1013.79 -40)">•</text><text font-family="Rubik,Rubik_MSFontService,sans-serif" font-weight="400" font-size="19" direction="rtl" writing-mode="rl-tb" transform="translate(949.95 -40)" x="40.3333">ביצים</text><text font-family="Arial,Arial_MSFontService,sans-serif" font-weight="400" font-size="19" transform="translate(1013.79 -18)">•</text><text font-family="Rubik,Rubik_MSFontService,sans-serif" font-weight="400" font-size="19" direction="rtl" writing-mode="rl-tb" transform="translate(901.95 -18)" x="88.3333">עשבי תיבול </text><text font-family="Rubik,Rubik_MSFontService,sans-serif" font-weight="400" font-size="19" direction="rtl" writing-mode="rl-tb" transform="translate(891.283 -18)" x="10.6667">–</text><text font-family="Rubik,Rubik_MSFontService,sans-serif" font-weight="400" font-size="19" direction="rtl" writing-mode="rl-tb" transform="translate(886.783 -18)" x="4.5"> </text><text font-family="Rubik,Rubik_MSFontService,sans-serif" font-weight="400" font-size="19" direction="rtl" writing-mode="rl-tb" transform="translate(822.95 -18)" x="63.8333">בזיליקום</text><text font-family="Rubik,Rubik_MSFontService,sans-serif" font-weight="400" font-size="19" direction="rtl" writing-mode="rl-tb" transform="translate(813.95 -18)" x="9">/</text><text font-family="Rubik,Rubik_MSFontService,sans-serif" font-weight="400" font-size="19" direction="rtl" writing-mode="rl-tb" transform="translate(739.45 -18)" x="74.5">פטרוזיליה</text><text font-family="Arial,Arial_MSFontService,sans-serif" font-weight="400" font-size="19" transform="translate(1013.79 5)">•</text><text font-family="Rubik,Rubik_MSFontService,sans-serif" font-weight="400" font-size="19" direction="rtl" writing-mode="rl-tb" transform="translate(819.616 5)" x="170.667">גבינה קשה לגירוד מעל</text><text font-family="Rubik,Rubik_MSFontService,sans-serif" font-weight="400" font-size="19" direction="rtl" writing-mode="rl-tb" transform="translate(966.45 49)" x="26.8333">טיפ</text><text font-family="Rubik,Rubik_MSFontService,sans-serif" font-weight="400" font-size="15" direction="rtl" writing-mode="rl-tb" transform="translate(772.283 68)" x="229.667">מומלץ להגיש את השקשוקה בתוך חלה </text><text font-family="Rubik,Rubik_MSFontService,sans-serif" font-weight="400" font-size="15" direction="rtl" writing-mode="rl-tb" transform="translate(763.783 68)" x="8.5">–</text><text font-family="Rubik,Rubik_MSFontService,sans-serif" font-weight="400" font-size="15" direction="rtl" writing-mode="rl-tb" transform="translate(760.116 68)" x="3.66667"> </text><text font-family="Rubik,Rubik_MSFontService,sans-serif" font-weight="400" font-size="15" direction="rtl" writing-mode="rl-tb" transform="translate(663.116 68)" x="97">טעים וכיף לאכול</text><text font-family="Rubik,Rubik_MSFontService,sans-serif" font-weight="400" font-size="15" direction="rtl" writing-mode="rl-tb" transform="translate(659.45 68)" x="3.66667">.</text><text font-family="OS Luizi Round_FFC,OS Luizi Round_FFC_MSFontService,sans-serif" font-weight="400" font-size="43" direction="rtl" writing-mode="rl-tb" transform="translate(651.051 -162)" x="224.667">שקשוקה ישראלית</text><g clip-path="url(#clip1)"><g clip-path="url(#clip2)"><g clip-path="url(#clip3)"><path d="M1010.65 48.6667 1018.35 48.6667C1019.01 48.6667 1019.51 49.1677 1019.51 49.8229 1019.51 50.4781 1019.01 50.9792 1018.35 50.9792L1010.65 50.9792C1009.99 50.9792 1009.49 50.4781 1009.49 49.8229 1009.49 49.1677 1009.99 48.6667 1010.65 48.6667Z"/><path d="M1010.65 52.5208 1018.35 52.5208C1019.01 52.5208 1019.51 53.0219 1019.51 53.6771 1019.51 54.3323 1019.01 54.8333 1018.35 54.8333L1010.65 54.8333C1009.99 54.8333 1009.49 54.3323 1009.49 53.6771 1009.49 53.0219 1009.99 52.5208 1010.65 52.5208Z"/><path d="M1011.99 56.375C1012.11 57.6854 1013.19 58.6875 1014.5 58.6875 1015.81 58.6875 1016.89 57.6854 1017.01 56.375L1011.99 56.375Z"/><path d="M1014.5 26.3125C1014.5 26.3125 1014.5 26.3125 1014.5 26.3125 1014.5 26.3125 1014.5 26.3125 1014.5 26.3125 1009.03 26.351 1004.59 30.7448 1004.48 36.2177L1004.48 36.5646C1004.52 37.7594 1004.75 38.9156 1005.17 40.0333 1005.6 41.074 1006.17 42.0375 1006.91 42.8854 1007.83 43.8875 1008.83 45.8531 1009.26 46.701 1009.37 46.9708 1009.64 47.125 1009.95 47.125L1019.05 47.125C1019.36 47.125 1019.63 46.9708 1019.74 46.701 1020.17 45.8531 1021.17 43.8875 1022.09 42.8854 1022.83 42.0375 1023.44 41.074 1023.83 40.0333 1024.25 38.9156 1024.48 37.7594 1024.52 36.5646L1024.52 36.2177C1024.41 30.7448 1019.97 26.351 1014.5 26.3125ZM1022.21 36.526C1022.17 37.451 1021.98 38.376 1021.67 39.224 1021.36 39.9948 1020.94 40.7271 1020.36 41.3438 1019.47 42.4229 1018.7 43.5792 1018.12 44.8125L1014.5 44.8125 1010.92 44.8125C1010.3 43.5792 1009.53 42.4229 1008.68 41.3438 1008.14 40.7271 1007.68 39.9948 1007.37 39.224 1007.02 38.376 1006.87 37.451 1006.83 36.526L1006.83 36.2177C1006.91 32.0167 1010.34 28.625 1014.54 28.5865L1014.54 28.5865 1014.54 28.5865C1014.54 28.5865 1014.54 28.5865 1014.54 28.5865 1014.54 28.5865 1014.54 28.5865 1014.54 28.5865L1014.54 28.5865 1014.54 28.5865C1018.74 28.625 1022.17 31.9781 1022.25 36.2177L1022.25 36.526Z"/></g></g></g></g></svg>