<svg width="538" height="403" xmlns="http://www.w3.org/2000/svg" xmlns:xlink="http://www.w3.org/1999/xlink" overflow="hidden"><defs><clipPath id="clip0"><rect x="459" y="-222" width="538" height="403"/></clipPath><clipPath id="clip1"><rect x="959" y="24" width="37" height="37"/></clipPath><clipPath id="clip2"><rect x="959" y="24" width="37" height="37"/></clipPath><clipPath id="clip3"><rect x="959" y="24" width="37" height="37"/></clipPath></defs><g clip-path="url(#clip0)" transform="translate(-459 222)"><rect x="460" y="-214" width="533" height="394" fill="#E3D8C4"/><text font-family="Rubik,Rubik_MSFontService,sans-serif" font-weight="400" font-size="19" direction="rtl" writing-mode="rl-tb" transform="translate(780.725 -107)" x="202.667">המנה הישראלית המושלמת</text><text font-family="Rubik,Rubik_MSFontService,sans-serif" font-weight="400" font-size="19" direction="rtl" writing-mode="rl-tb" transform="translate(771.558 -107)" x="9.16667">, </text><text font-family="Rubik,Rubik_MSFontService,sans-serif" font-weight="400" font-size="19" direction="rtl" writing-mode="rl-tb" transform="translate(516.058 -107)" x="255.5">קלה להכנה וטעימה לכל המשפחה</text><text font-family="Rubik,Rubik_MSFontService,sans-serif" font-weight="400" font-size="19" direction="rtl" writing-mode="rl-tb" transform="translate(511.392 -107)" x="4.66667">.</text><text font-family="Arial,Arial_MSFontService,sans-serif" font-weight="400" font-size="19" transform="translate(976.898 -85)">•</text><text font-family="Rubik,Rubik_MSFontService,sans-serif" font-weight="400" font-size="19" direction="rtl" writing-mode="rl-tb" transform="translate(814.058 -85)" x="139.333">רוטב עגבניות ביתי </text><text font-family="Rubik,Rubik_MSFontService,sans-serif" font-weight="400" font-size="19" direction="rtl" writing-mode="rl-tb" transform="translate(800.558 -85)" x="13.5">/ </text><text font-family="Rubik,Rubik_MSFontService,sans-serif" font-weight="400" font-size="19" direction="rtl" writing-mode="rl-tb" transform="translate(772.225 -85)" x="28.3333">קנוי</text><text font-family="Arial,Arial_MSFontService,sans-serif" font-weight="400" font-size="19" transform="translate(976.898 -63)">•</text><text font-family="Rubik,Rubik_MSFontService,sans-serif" font-weight="400" font-size="19" direction="rtl" writing-mode="rl-tb" transform="translate(809.725 -63)" x="143.667">תבלינים לבחירתכם</text><text font-family="Arial,Arial_MSFontService,sans-serif" font-weight="400" font-size="19" transform="translate(976.898 -40)">•</text><text font-family="Rubik,Rubik_MSFontService,sans-serif" font-weight="400" font-size="19" direction="rtl" writing-mode="rl-tb" transform="translate(913.058 -40)" x="40.3333">ביצים</text><text font-family="Arial,Arial_MSFontService,sans-serif" font-weight="400" font-size="19" transform="translate(976.898 -18)">•</text><text font-family="Rubik,Rubik_MSFontService,sans-serif" font-weight="400" font-size="19" direction="rtl" writing-mode="rl-tb" transform="translate(865.058 -18)" x="88.3333">עשבי תיבול </text><text font-family="Rubik,Rubik_MSFontService,sans-serif" font-weight="400" font-size="19" direction="rtl" writing-mode="rl-tb" transform="translate(854.391 -18)" x="10.6667">–</text><text font-family="Rubik,Rubik_MSFontService,sans-serif" font-weight="400" font-size="19" direction="rtl" writing-mode="rl-tb" transform="translate(849.891 -18)" x="4.5"> </text><text font-family="Rubik,Rubik_MSFontService,sans-serif" font-weight="400" font-size="19" direction="rtl" writing-mode="rl-tb" transform="translate(786.058 -18)" x="63.8333">בזיליקום</text><text font-family="Rubik,Rubik_MSFontService,sans-serif" font-weight="400" font-size="19" direction="rtl" writing-mode="rl-tb" transform="translate(777.058 -18)" x="9">/</text><text font-family="Rubik,Rubik_MSFontService,sans-serif" font-weight="400" font-size="19" direction="rtl" writing-mode="rl-tb" transform="translate(702.558 -18)" x="74.5">פטרוזיליה</text><text font-family="Arial,Arial_MSFontService,sans-serif" font-weight="400" font-size="19" transform="translate(976.898 5)">•</text><text font-family="Rubik,Rubik_MSFontService,sans-serif" font-weight="400" font-size="19" direction="rtl" writing-mode="rl-tb" transform="translate(782.725 5)" x="170.667">גבינה קשה לגירוד מעל</text><text font-family="Rubik,Rubik_MSFontService,sans-serif" font-weight="400" font-size="19" direction="rtl" writing-mode="rl-tb" transform="translate(929.558 49)" x="26.8333">טיפ</text><text font-family="Rubik,Rubik_MSFontService,sans-serif" font-weight="400" font-size="15" direction="rtl" writing-mode="rl-tb" transform="translate(735.391 68)" x="229.667">מומלץ להגיש את השקשוקה בתוך חלה </text><text font-family="Rubik,Rubik_MSFontService,sans-serif" font-weight="400" font-size="15" direction="rtl" writing-mode="rl-tb" transform="translate(726.891 68)" x="8.5">–</text><text font-family="Rubik,Rubik_MSFontService,sans-serif" font-weight="400" font-size="15" direction="rtl" writing-mode="rl-tb" transform="translate(723.225 68)" x="3.66667"> </text><text font-family="Rubik,Rubik_MSFontService,sans-serif" font-weight="400" font-size="15" direction="rtl" writing-mode="rl-tb" transform="translate(626.225 68)" x="97">טעים וכיף לאכול</text><text font-family="Rubik,Rubik_MSFontService,sans-serif" font-weight="400" font-size="15" direction="rtl" writing-mode="rl-tb" transform="translate(622.558 68)" x="3.66667">.</text><text font-family="OS Luizi Round_FFC,OS Luizi Round_FFC_MSFontService,sans-serif" font-weight="400" font-size="43" direction="rtl" writing-mode="rl-tb" transform="translate(614.159 -162)" x="224.667">שקשוקה ישראלית</text><g clip-path="url(#clip1)"><g clip-path="url(#clip2)"><g clip-path="url(#clip3)"><path d="M973.646 48.6667 981.354 48.6667C982.009 48.6667 982.51 49.1677 982.51 49.8229 982.51 50.4781 982.009 50.9792 981.354 50.9792L973.646 50.9792C972.991 50.9792 972.49 50.4781 972.49 49.8229 972.49 49.1677 972.991 48.6667 973.646 48.6667Z"/><path d="M973.646 52.5208 981.354 52.5208C982.009 52.5208 982.51 53.0219 982.51 53.6771 982.51 54.3323 982.009 54.8333 981.354 54.8333L973.646 54.8333C972.991 54.8333 972.49 54.3323 972.49 53.6771 972.49 53.0219 972.991 52.5208 973.646 52.5208Z"/><path d="M974.995 56.375C975.11 57.6854 976.19 58.6875 977.5 58.6875 978.81 58.6875 979.89 57.6854 980.005 56.375L974.995 56.375Z"/><path d="M977.5 26.3125C977.5 26.3125 977.5 26.3125 977.5 26.3125 977.5 26.3125 977.5 26.3125 977.5 26.3125 972.027 26.351 967.595 30.7448 967.479 36.2177L967.479 36.5646C967.518 37.7594 967.749 38.9156 968.173 40.0333 968.597 41.074 969.175 42.0375 969.907 42.8854 970.832 43.8875 971.834 45.8531 972.258 46.701 972.374 46.9708 972.644 47.125 972.952 47.125L982.048 47.125C982.356 47.125 982.626 46.9708 982.742 46.701 983.166 45.8531 984.168 43.8875 985.093 42.8854 985.825 42.0375 986.442 41.074 986.827 40.0333 987.251 38.9156 987.482 37.7594 987.521 36.5646L987.521 36.2177C987.405 30.7448 982.973 26.351 977.5 26.3125ZM985.208 36.526C985.17 37.451 984.977 38.376 984.669 39.224 984.36 39.9948 983.936 40.7271 983.358 41.3438 982.472 42.4229 981.701 43.5792 981.123 44.8125L977.5 44.8125 973.916 44.8125C973.299 43.5792 972.528 42.4229 971.68 41.3438 971.141 40.7271 970.678 39.9948 970.37 39.224 970.023 38.376 969.869 37.451 969.83 36.526L969.83 36.2177C969.907 32.0167 973.338 28.625 977.539 28.5865L977.539 28.5865 977.539 28.5865C977.539 28.5865 977.539 28.5865 977.539 28.5865 977.539 28.5865 977.539 28.5865 977.539 28.5865L977.539 28.5865 977.539 28.5865C981.74 28.625 985.17 31.9781 985.247 36.2177L985.247 36.526Z"/></g></g></g></g></svg>