<svg width="695" height="288" xmlns="http://www.w3.org/2000/svg" xmlns:xlink="http://www.w3.org/1999/xlink" overflow="hidden"><defs><clipPath id="clip0"><rect x="183" y="101" width="695" height="288"/></clipPath><clipPath id="clip1"><rect x="697" y="343" width="31" height="31"/></clipPath><clipPath id="clip2"><rect x="697" y="343" width="31" height="31"/></clipPath><clipPath id="clip3"><rect x="697" y="343" width="31" height="31"/></clipPath></defs><g clip-path="url(#clip0)" transform="translate(-183 -101)"><rect x="194" y="108" width="684" height="273" fill="#E3D8C4"/><text font-family="Rubik,Rubik_MSFontService,sans-serif" font-weight="400" font-size="19" direction="rtl" writing-mode="rl-tb" transform="translate(560.252 194)" x="167.333">כדורי שוקולד קלאסיים</text><text font-family="Rubik,Rubik_MSFontService,sans-serif" font-weight="400" font-size="19" direction="rtl" writing-mode="rl-tb" transform="translate(551.085 194)" x="9.16667">, </text><text font-family="Rubik,Rubik_MSFontService,sans-serif" font-weight="400" font-size="19" direction="rtl" writing-mode="rl-tb" transform="translate(246.085 194)" x="305">מצופים בשוקולד לבן ומקושטים בסוכריות </text><text font-family="Rubik,Rubik_MSFontService,sans-serif" font-weight="400" font-size="19" direction="rtl" writing-mode="rl-tb" transform="translate(662.919 216)" x="64.6667">צבעוניות</text><text font-family="Rubik,Rubik_MSFontService,sans-serif" font-weight="400" font-size="19" direction="rtl" writing-mode="rl-tb" transform="translate(658.252 216)" x="4.66667">.</text><text font-family="Rubik,Rubik_MSFontService,sans-serif" font-weight="400" font-size="19" transform="translate(653.752 216)"> </text><text font-family="Rubik,Rubik_MSFontService,sans-serif" font-weight="400" font-size="19" direction="rtl" writing-mode="rl-tb" transform="translate(333.085 238)" x="394.5">להכנת כדורי השוקולד ערבבו שוקולד מומס עם שמנת</text><text font-family="Rubik,Rubik_MSFontService,sans-serif" font-weight="400" font-size="19" direction="rtl" writing-mode="rl-tb" transform="translate(323.919 238)" x="9.16667">, </text><text font-family="Rubik,Rubik_MSFontService,sans-serif" font-weight="400" font-size="19" direction="rtl" writing-mode="rl-tb" transform="translate(240.085 238)" x="83.8333">ביסקוויטים </text><text font-family="Rubik,Rubik_MSFontService,sans-serif" font-weight="400" font-size="19" direction="rtl" writing-mode="rl-tb" transform="translate(591.252 261)" x="136.333">טחונים ומעט סוכר</text><text font-family="Rubik,Rubik_MSFontService,sans-serif" font-weight="400" font-size="19" direction="rtl" writing-mode="rl-tb" transform="translate(586.585 261)" x="4.66667">.</text><text font-family="Rubik,Rubik_MSFontService,sans-serif" font-weight="400" font-size="19" transform="translate(582.085 261)"> </text><text font-family="Rubik,Rubik_MSFontService,sans-serif" font-weight="400" font-size="19" direction="rtl" writing-mode="rl-tb" transform="translate(493.252 283)" x="234.333">צרו כדורים וקררו עד להתייצבות</text><text font-family="Rubik,Rubik_MSFontService,sans-serif" font-weight="400" font-size="19" direction="rtl" writing-mode="rl-tb" transform="translate(484.085 283)" x="9.16667">. </text><text font-family="Rubik,Rubik_MSFontService,sans-serif" font-weight="400" font-size="19" direction="rtl" writing-mode="rl-tb" transform="translate(198.752 283)" x="285.333">המיסו שוקולד לבן עם שמנת וטבלו את </text><text font-family="Rubik,Rubik_MSFontService,sans-serif" font-weight="400" font-size="19" direction="rtl" writing-mode="rl-tb" transform="translate(568.585 306)" x="159">כדורי השוקולד שלכם</text><text font-family="Rubik,Rubik_MSFontService,sans-serif" font-weight="400" font-size="19" direction="rtl" writing-mode="rl-tb" transform="translate(559.419 306)" x="9.16667">. </text><text font-family="Rubik,Rubik_MSFontService,sans-serif" font-weight="400" font-size="19" direction="rtl" writing-mode="rl-tb" transform="translate(267.919 306)" x="291.5">קשטו בסוכריות לפני שהשוקולד מתייצב</text><text font-family="Rubik,Rubik_MSFontService,sans-serif" font-weight="400" font-size="19" direction="rtl" writing-mode="rl-tb" transform="translate(263.252 306)" x="4.66667">.</text><text font-family="Rubik,Rubik_MSFontService,sans-serif" font-weight="400" font-size="19" transform="translate(258.752 306)"> </text><text font-family="Rubik,Rubik_MSFontService,sans-serif" font-weight="400" font-size="19" direction="rtl" writing-mode="rl-tb" transform="translate(709.585 328)" x="18">    </text><text font-family="Rubik,Rubik_MSFontService,sans-serif" font-weight="400" font-size="19" direction="rtl" writing-mode="rl-tb" transform="translate(682.585 350)" x="45">          </text><text font-family="Rubik,Rubik_MSFontService,sans-serif" font-weight="400" font-size="19" direction="rtl" writing-mode="rl-tb" transform="translate(651.252 350)" x="31.3333">טיפ </text><text font-family="Rubik,Rubik_MSFontService,sans-serif" font-weight="400" font-size="19" direction="rtl" writing-mode="rl-tb" transform="translate(640.585 350)" x="10.6667">–</text><text font-family="Rubik,Rubik_MSFontService,sans-serif" font-weight="400" font-size="19" direction="rtl" writing-mode="rl-tb" transform="translate(636.085 350)" x="4.5"> </text><text font-family="Rubik,Rubik_MSFontService,sans-serif" font-weight="400" font-size="19" direction="rtl" writing-mode="rl-tb" transform="translate(425.252 350)" x="210.833">להגשה נוחה ופחות מלכלכת</text><text font-family="Rubik,Rubik_MSFontService,sans-serif" font-weight="400" font-size="19" direction="rtl" writing-mode="rl-tb" transform="translate(416.252 350)" x="9">-</text><text font-family="Rubik,Rubik_MSFontService,sans-serif" font-weight="400" font-size="19" direction="rtl" writing-mode="rl-tb" transform="translate(411.752 350)" x="4.5"> </text><text font-family="Rubik,Rubik_MSFontService,sans-serif" font-weight="400" font-size="19" direction="rtl" writing-mode="rl-tb" transform="translate(252.919 350)" x="158.833">הכניסו מקל לתחתית </text><text font-family="Rubik,Rubik_MSFontService,sans-serif" font-weight="400" font-size="19" direction="rtl" writing-mode="rl-tb" transform="translate(217.585 350)" x="35.3333">כדור</text><text font-family="Rubik,Rubik_MSFontService,sans-serif" font-weight="400" font-size="19" direction="rtl" writing-mode="rl-tb" transform="translate(682.585 373)" x="45">          </text><text font-family="Rubik,Rubik_MSFontService,sans-serif" font-weight="400" font-size="19" direction="rtl" writing-mode="rl-tb" transform="translate(616.585 373)" x="66">השוקולד</text><text font-family="Rubik,Rubik_MSFontService,sans-serif" font-weight="400" font-size="19" direction="rtl" writing-mode="rl-tb" transform="translate(612.085 373)" x="4.5"> </text><text font-family="Rubik,Rubik_MSFontService,sans-serif" font-weight="400" font-size="19" direction="rtl" writing-mode="rl-tb" transform="translate(567.419 373)" x="44.6667">שלכם</text><text font-family="Rubik,Rubik_MSFontService,sans-serif" font-weight="400" font-size="19" direction="rtl" writing-mode="rl-tb" transform="translate(562.752 373)" x="4.66667">.</text><text font-family="OS Luizi Round_FFC,OS Luizi Round_FFC_MSFontService,sans-serif" font-weight="400" font-size="43" direction="rtl" writing-mode="rl-tb" transform="translate(375.748 160)" x="320">כדורי שוקולד עם שדרוג</text><g clip-path="url(#clip1)"><g clip-path="url(#clip2)"><g clip-path="url(#clip3)"><path d="M709.271 363.667 715.729 363.667C716.278 363.667 716.698 364.086 716.698 364.635 716.698 365.184 716.278 365.604 715.729 365.604L709.271 365.604C708.722 365.604 708.302 365.184 708.302 364.635 708.302 364.086 708.722 363.667 709.271 363.667Z"/><path d="M709.271 366.896 715.729 366.896C716.278 366.896 716.698 367.316 716.698 367.865 716.698 368.414 716.278 368.833 715.729 368.833L709.271 368.833C708.722 368.833 708.302 368.414 708.302 367.865 708.302 367.316 708.722 366.896 709.271 366.896Z"/><path d="M710.401 370.125C710.498 371.223 711.402 372.062 712.5 372.062 713.598 372.062 714.502 371.223 714.599 370.125L710.401 370.125Z"/><path d="M712.5 344.938C712.5 344.938 712.5 344.938 712.5 344.938 712.5 344.938 712.5 344.938 712.5 344.938 707.915 344.97 704.201 348.651 704.104 353.236L704.104 353.527C704.136 354.528 704.33 355.497 704.685 356.433 705.041 357.305 705.525 358.112 706.139 358.823 706.914 359.663 707.753 361.309 708.108 362.02 708.205 362.246 708.431 362.375 708.69 362.375L716.31 362.375C716.569 362.375 716.795 362.246 716.892 362.02 717.247 361.309 718.086 359.663 718.861 358.823 719.475 358.112 719.992 357.305 720.315 356.433 720.67 355.497 720.864 354.528 720.896 353.527L720.896 353.236C720.799 348.651 717.085 344.97 712.5 344.938ZM718.958 353.495C718.926 354.27 718.765 355.045 718.506 355.755 718.248 356.401 717.893 357.015 717.408 357.531 716.666 358.435 716.02 359.404 715.535 360.438L712.5 360.438 709.497 360.438C708.98 359.404 708.334 358.435 707.624 357.531 707.172 357.015 706.784 356.401 706.526 355.755 706.235 355.045 706.106 354.27 706.074 353.495L706.074 353.236C706.139 349.717 709.013 346.875 712.532 346.843L712.532 346.843 712.532 346.843C712.532 346.843 712.532 346.843 712.532 346.843 712.532 346.843 712.532 346.843 712.532 346.843L712.532 346.843 712.532 346.843C716.052 346.875 718.926 349.684 718.991 353.236L718.991 353.495Z"/></g></g></g></g></svg>