<svg width="232" height="239" xmlns="http://www.w3.org/2000/svg" xmlns:xlink="http://www.w3.org/1999/xlink" overflow="hidden"><defs><clipPath id="clip0"><rect x="460" y="-300" width="232" height="239"/></clipPath><clipPath id="clip1"><rect x="540" y="-288" width="72" height="73"/></clipPath><clipPath id="clip2"><rect x="540" y="-288" width="72" height="73"/></clipPath><clipPath id="clip3"><rect x="540" y="-288" width="72" height="73"/></clipPath><clipPath id="clip4"><rect x="650" y="-125" width="19" height="19"/></clipPath><clipPath id="clip5"><rect x="650" y="-125" width="19" height="19"/></clipPath><clipPath id="clip6"><rect x="650" y="-125" width="19" height="19"/></clipPath></defs><g clip-path="url(#clip0)" transform="translate(-460 300)"><rect x="461" y="-299" width="231" height="237" fill="#FFFFFF" fill-opacity="0.8"/><g clip-path="url(#clip1)"><g clip-path="url(#clip2)"><g clip-path="url(#clip3)"><path d="M36 33C32.25 33 29.25 30 29.25 26.25 29.25 22.5 32.25 19.5 36 19.5 39.75 19.5 42.75 22.5 42.75 26.25 42.75 30 39.75 33 36 33ZM36 10.5C30.825 10.5 25.95 13.05 23.025 17.4 20.1 21.675 19.5 27.15 21.375 32.025L28.5 47.775 34.65 60.675C34.875 61.2 35.4 61.5 36 61.5 36.6 61.5 37.125 61.2 37.35 60.675L43.5 47.775 50.625 32.025C52.5 27.15 51.9 21.675 48.975 17.4 46.05 13.05 41.175 10.5 36 10.5Z" fill="#C00000" transform="matrix(1 0 0 1.01389 540 -288)"/></g></g></g><text font-family="Heebo,Heebo_MSFontService,sans-serif" font-weight="300" font-size="19" direction="rtl" writing-mode="rl-tb" transform="translate(507.583 -111)" x="137">אני רוצה לדעת עוד</text><text font-family="Rubik,Rubik_MSFontService,sans-serif" font-weight="700" font-size="27" direction="rtl" writing-mode="rl-tb" transform="translate(504.833 -184)" x="142.5">פארק הירקון</text><text font-family="Rubik,Rubik_MSFontService,sans-serif" font-weight="700" font-size="27" transform="translate(647.34 -184)"> </text><text font-family="Rubik,Rubik_MSFontService,sans-serif" font-weight="700" font-size="27" direction="rtl" writing-mode="rl-tb" transform="translate(529.5 -152)" x="93.1667">תל אביב</text><g clip-path="url(#clip4)"><g clip-path="url(#clip5)"><g clip-path="url(#clip6)"><path d="M667.417-116.688 660.688-116.688 660.688-123.417 658.312-123.417 658.312-116.688 651.583-116.688 651.583-114.312 658.312-114.312 658.312-107.583 660.688-107.583 660.688-114.312 667.417-114.312Z"/></g></g></g></g></svg>