<svg xmlns="http://www.w3.org/2000/svg" viewBox="0 0 21.04 14.84"><g id="Layer_2" data-name="Layer 2"><g id="Layer_1-2" data-name="Layer 1"><path d="M18.37.48l.1,0a.35.35,0,0,1,.12.58L10.65,8.66a.33.33,0,0,1-.34.07l-.09,0A.35.35,0,0,1,10,8.27v0a.38.38,0,0,1,.09-.15L18,.55A.3.3,0,0,1,18.37.48ZM10.66,8.24h0a.34.34,0,0,1-.22.42l-.11,0A.3.3,0,0,1,10,8.6L2.45.61A.35.35,0,0,1,2.59,0l.1,0A.34.34,0,0,1,3,.1l7.56,8A.28.28,0,0,1,10.66,8.24Z"/><path d="M20.63,4.19l.13,0a.45.45,0,0,1,.15.74L10.68,14.73a.42.42,0,0,1-.43.09l-.12-.05a.43.43,0,0,1-.27-.54l0-.06A.39.39,0,0,1,10,14l10.21-9.7A.39.39,0,0,1,20.63,4.19Zm-9.93,10h0a.44.44,0,0,1-.29.55l-.13,0a.42.42,0,0,1-.42-.12L.12,4.36a.45.45,0,0,1,.19-.73l.12,0a.42.42,0,0,1,.42.12L10.6,14A.4.4,0,0,1,10.7,14.18Z"/></g></g></svg>